<?xml version="1.0" encoding="UTF-8"?>
<svg xmlns="http://www.w3.org/2000/svg" viewBox="0 0 64 64">
    <g fill="currentColor" opacity=".4">
        <path d="M50,48h-12c0-1.1-.9-2-2-2h-2v-8h-4v8h-2c-1.1,0-2,.9-2,2h-12c-1.1,0-2,.9-2,2s.9,2,2,2h12c0,1.1.9,2,2,2h8c1.1,0,2-.9,2-2h12c1.1,0,2-.9,2-2s-.9-2-2-2Z"/>
    </g>
    <path fill="currentColor" d="M42.55,26.65h-.46c1.25-1.14,1.97-2.75,1.97-4.44,0-3.33-2.7-6.03-6.03-6.03s-6.03,2.7-6.03,6.03c0,1.76.76,3.34,1.97,4.44h-.46c-2.49,0-4.52,2.03-4.52,4.52v7.53c0,.83.68,1.51,1.51,1.51h15.07c.83,0,1.51-.68,1.51-1.51v-7.53c0-2.49-2.03-4.52-4.52-4.52Z"/>
    <path fill="var(--icon-color-accent, #ff8700)" d="M28.99,31.17c0-2.49,2.03-4.52,4.52-4.52h.46c-1.25-1.14-1.97-2.75-1.97-4.44,0-.46.06-.91.16-1.34-.51-.2-1.08-.32-1.66-.32h-.46c1.25-1.14,1.97-2.75,1.97-4.44,0-3.33-2.7-6.03-6.03-6.03s-6.03,2.7-6.03,6.03c0,1.76.76,3.34,1.97,4.44h-.46c-2.49,0-4.52,2.03-4.52,4.52v7.53c0,.83.68,1.51,1.51,1.51h10.55v-2.94Z"/>
</svg>