<?xml version="1.0" encoding="UTF-8"?>
<svg xmlns="http://www.w3.org/2000/svg" viewBox="0 0 64 64">
  <!-- Generator: Adobe Illustrator 29.0.0, SVG Export Plug-In . SVG Version: 2.1.0 Build 186)  -->
  <path fill="#174f44" d="M0,0h64v64H0V0Z"/>
  <g>
    <path fill="#fff" d="M50.9,35.5c-4.2-1.6-8.9-2.9-9.3-4.1v-2.2c4.2,0,5.9-1.4,5.9-1.4-1.8-1-2.3-7.9-2.3-7.9,0-2.1-.9-4-2.3-5.3-.5-.6-1.3-1.1-2.2-1.4-.7-.3-1.5-.4-2.2-.4s-1.6.2-2.4.5c-.8.3-1.4.6-1.9,1.1,0,0,0,0-.1.1.4,1,.6,2.1.6,3.4v2.6c.3.6.5,1.3.5,2.1,0,1.1-.4,2.2-1.2,3-.4,1.2-1,2.3-1.6,3.2,0,0,.2.1.2.2.7.1,1.6.2,2.6.2v1.4c1.5.8,3.5,1.8,5.6,2.6,1.2.4,1.9,1.6,1.9,2.8v3.6c0,.4,0,.7-.2,1h7.9c.5,0,.9-.4.9-.9v-3.3c0-.4-.2-.7-.6-.9Z"/>
    <path fill="#fff" d="M40.2,35.1c-.5-.2-1-.4-1.4-.6,0,0,0,0-.1,0-.5-.2-.9-.4-1.4-.6,0,0-.1,0-.2,0-.5-.2-.9-.4-1.4-.7,0,0,0,0-.1,0-.5-.2-.9-.5-1.3-.7-2.2-1.2-3.9-2.4-4.1-3.1v-.9s0,0,0,0h0s0,0,0,0c.5-.5.9-1,1.2-1.7,0,0,0,0,0-.1.1-.3.3-.6.4-.9.1-.4.3-.7.4-1.1.6-.4,1-1.1,1-1.9s-.2-1.1-.5-1.5v-3.2c0-.2,0-.5,0-.7,0,0,0,0,0,0-.3-2.9-2.1-4.8-6-4.8s-6,2.3-6,5.6v3.2c-.3.4-.5.9-.5,1.5s.4,1.5,1,1.9c.4,1.6,1.2,2.9,2.1,3.9v.9c-.4,1.4-5.5,4.1-10,5.9-.4.1-.6.5-.6,1v3.6c0,.6.5,1,1,1h26.3c.6,0,1-.5,1-1v-3.6c0-.4-.3-.8-.6-1Z"/>
  </g>
  <g>
    <path fill="#fff" d="M53.3,49.6h-4.1c-1,0-1.7.8-1.7,1.7s.8,1.7,1.7,1.7h4.1c1,0,1.7-.8,1.7-1.7s-.8-1.7-1.7-1.7Z"/>
    <path fill="#fff" d="M42.9,49.6h-4.1c-1,0-1.7.8-1.7,1.7s.8,1.7,1.7,1.7h4.1c1,0,1.7-.8,1.7-1.7s-.8-1.7-1.7-1.7Z"/>
    <path fill="#fff" d="M22.2,49.6h-4.1c-1,0-1.7.8-1.7,1.7s.8,1.7,1.7,1.7h4.1c1,0,1.7-.8,1.7-1.7s-.8-1.7-1.7-1.7Z"/>
    <path fill="#fff" d="M11.8,49.6h-4.1c-1,0-1.7.8-1.7,1.7s.8,1.7,1.7,1.7h4.1c1,0,1.7-.8,1.7-1.7s-.8-1.7-1.7-1.7Z"/>
    <path fill="#fff" d="M29.2,40.6v8.3c-.8.5-1.4,1.4-1.4,2.4,0,1.5,1.3,2.8,2.8,2.8s2.8-1.3,2.8-2.8c0-1-.6-1.9-1.4-2.4v-8.3"/>
  </g>
</svg>
